<svg width="200" height="200" viewBox="0 0 200 200" xmlns="http://www.w3.org/2000/svg">
  <!-- 蓝色圆形背景 -->
  <circle cx="100" cy="100" r="90" fill="#5B8FC7" stroke="none"/>
  
  <!-- 白色字母M - 更大更靠近边缘 -->
  <path d="M 40 155 
           L 40 65 
           C 40 52 48 45 58 45
           C 68 45 74 52 74 60
           L 100 130
           L 126 60
           C 132 52 138 45 148 45
           C 158 45 166 52 166 65
           L 166 155
           C 166 168 158 175 148 175
           C 138 175 132 168 132 155
           L 132 100
           L 115 145
           C 110 155 105 160 100 160
           C 95 160 90 155 85 145
           L 68 100
           L 68 155
           C 68 168 62 175 52 175
           C 42 175 40 168 40 155 Z" 
        fill="white"/>
</svg>